<svg xmlns="http://www.w3.org/2000/svg" xmlns:xlink="http://www.w3.org/1999/xlink" viewBox="0 0 558 59.5"><defs><style>.cls-1{fill:none;}.cls-2{clip-path:url(#clip-path);}.cls-3{fill:#0573bc;}.cls-4{fill:#fff;}.cls-5{fill:#0172b9;}</style><clipPath id="clip-path"><rect class="cls-1" width="558" height="59.5"/></clipPath></defs><g id="Layer_2" data-name="Layer 2"><g id="Layer_1-2" data-name="Layer 1"><g class="cls-2"><rect class="cls-3" width="558" height="59.5"/><polygon class="cls-4" points="231.5 22.38 244.27 15 257.04 22.38 257.04 37.13 244.27 44.5 231.5 37.13 231.5 22.38"/><circle class="cls-5" cx="244.27" cy="29.75" r="8.91"/><path class="cls-4" d="M248.2,24.76h-7.86a1.08,1.08,0,0,0,0,2.16h7.86a1.08,1.08,0,1,0,0-2.16Z"/><path class="cls-4" d="M248.2,28.65h-7.86a1.08,1.08,0,1,0,0,2.15h7.86a1.08,1.08,0,1,0,0-2.15Z"/><path class="cls-4" d="M248.2,32.58h-7.86a1.08,1.08,0,0,0,0,2.16h7.86a1.08,1.08,0,1,0,0-2.16Z"/><polygon class="cls-4" points="299.69 31.07 295.63 21.24 289.62 21.24 293.67 30.57 296.99 38.26 302.4 38.26 304.52 33.35 309.76 21.24 303.76 21.24 299.69 31.07"/><path class="cls-4" d="M317.28,20.85c-5.37,0-9.23,3.76-9.23,8.88a8.85,8.85,0,0,0,9.23,9.06,10,10,0,0,0,3.81-.73,8.76,8.76,0,0,0,5.41-8.33C326.5,24.61,322.64,20.85,317.28,20.85Zm0,13a3.86,3.86,0,0,1-3.86-4.1,4.17,4.17,0,0,1,.16-1.19,4.44,4.44,0,0,1,.27-.72,4,4,0,0,1,.63-.92,3.71,3.71,0,0,1,.56-.49,3.84,3.84,0,0,1,2.24-.68,3.68,3.68,0,0,1,2.77,1.17,4,4,0,0,1,.63.92,4.44,4.44,0,0,1,.27.72,4.56,4.56,0,0,1,.15,1.19A3.85,3.85,0,0,1,317.31,33.87Z"/><rect class="cls-4" x="265.85" y="21.21" width="5.7" height="17.05"/><path class="cls-4" d="M290,25.28a6.76,6.76,0,0,0-6.74-4.57h-.72l-.31,0h-.06l-.36.06h-.08l-.29.07-.08,0-.35.09L281,21l-.3.11-.08,0c-.23.09-.46.19-.68.3l-.07,0-.31.16,0,0-.33.21-.05,0-.28.2-.05,0-.32.25h0l-.3.25-.05,0a8,8,0,0,0-.59.58l0,0c-.1.1-.19.21-.28.31h0c-.16.18-.31.37-.46.57h0c-.14.19-.28.38-.42.59l0,0c-.13.19-.25.39-.37.6l0,.05c-.13.22-.25.44-.36.67a3,3,0,0,0-.16.31,2,2,0,0,1,.08-.26,13.62,13.62,0,0,1,1.6-3.14l0,0a10.38,10.38,0,0,1,1.51-1.67v-.15h-5.69v17h5.69V27.59a6.35,6.35,0,0,1,1.22-1.08l.2-.12.2-.11a3.29,3.29,0,0,1,1.54-.41,3.75,3.75,0,0,1,.48,0l.13,0,.11,0a2.63,2.63,0,0,1,2.09,1.79,4.89,4.89,0,0,1,.27,1.72v8.81h5.72V28.54A9.74,9.74,0,0,0,290,25.28Z"/></g></g></g></svg>