<?xml version="1.0" encoding="UTF-8"?><svg id="Layer_2" xmlns="http://www.w3.org/2000/svg" viewBox="0 0 508.99 250"><defs><style>.cls-1{stroke:#fed600;stroke-linecap:round;stroke-linejoin:round;}.cls-1,.cls-2{fill:#fed600;}.cls-3,.cls-4{fill:#0057b7;}.cls-2,.cls-4{fill-rule:evenodd;}</style></defs><g id="Layer_1-2"><g><path class="cls-3" d="M136.7,85.64c0,6.43-5.18,11.64-11.56,11.64s-11.56-5.21-11.56-11.64,5.18-11.64,11.56-11.64,11.56,5.21,11.56,11.64Z"/><path class="cls-4" d="M108.81,112.15c1.42-2.73,2.58-4.02,3.68-4.89,.68-.54,1.39-.97,2.32-1.47-3.08,4.33-5.02,10.57-5.02,17.51,0,1.91,.15,3.77,.43,5.56-.04,1.42-.24,17.74-.27,19.78-.01,1.95-.02,3.64-.03,4.84v2.15l.86,14.63h.07c0,.08,0,.17,0,.26,0,1.54,.94,2.78,2.11,3.56,1.18,.79,2.73,1.23,4.38,1.23s3.2-.44,4.38-1.23c1.17-.78,2.11-2.01,2.11-3.56,0-.36-.05-.7-.14-1.02l.77-.04-.85-14.19,.06-8.39c.49,.07,1.44,.13,1.95,.13,.28,0,1.03-.1,1.75-.26l.21,8.63-.6,14.2h.34c-.08,.31-.12,.62-.12,.95,0,1.54,.93,2.78,2.11,3.56,1.18,.79,2.73,1.23,4.38,1.23s3.2-.44,4.38-1.23c1.17-.78,2.11-2.01,2.11-3.56,0-.13,0-.27-.02-.4l.5,.02,.62-14.65s-.12-5.04-.16-6.99c0,0-.48-16.81-.54-18.23-.05-1.05-.11-2.47-.23-3.3,.12-1.2,.18-2.43,.18-3.68,0-6.57-1.73-12.51-4.53-16.8-.35-.54-.72-1.06-1.11-1.54-.05-.06-.1-.13-.15-.19,.11,.06,.21,.12,.31,.17h0c1.52,.85,2.41,1.39,3.26,2.15,.94,.84,1.98,2.14,3.27,4.95,.23,.5,.36,.97,.41,1.38,.3,2.42,.06,5.37-.37,11.07,.5,0,.63-.2,1.37-.11-.09,.3-.13,.62-.13,.95,0,1.89,1.52,3.42,3.4,3.42s3.4-1.53,3.4-3.42c0-.15-.01-.3-.03-.45,.48,.11,.98,.61,1.48,.61,.42-5.53,.81-9.72,.38-13.24-.52-4.26-4.38-10.13-6.79-12.3-1.81-1.63-3.83-2.75-5.61-3.74-.23-.13-.46-.26-.68-.38l-.34,.61-11.92,1.55c-.71,.07-1.29,.09-2,0l-10.2-1.45-.41-.82c-2,.99-4.96,2.45-6.94,4.02-1.09,.86-7.93,6.75-7.93,16.25,0,2.89-.1,4.63,.5,9.35,.5,.15,.93-.35,1.56-.42-.02,.14-.03,.27-.03,.42,0,1.89,1.52,3.42,3.4,3.42s3.4-1.53,3.4-3.42c0-.34-.05-.67-.14-.98,.45-.12,.79,.13,1.29,.13-.47-5.62-1-10.5,.21-12.35Z"/><path class="cls-1" d="M390.01,84.34c3.36-1.4,6.96-2.12,10.6-2.12s7.24,.72,10.6,2.12c3.36,1.4,6.41,3.45,8.98,6.04,2.57,2.59,4.61,5.65,6,9.03,1.39,3.38,2.11,7,2.11,10.65s-.72,7.27-2.11,10.65c-1.39,3.38-3.43,6.45-6,9.03l-40.09,40.34c-.51,.52-1.21,.81-1.94,.81s-1.43-.29-1.94-.81l-40.09-40.34c-5.19-5.22-8.1-12.3-8.1-19.68s2.91-14.46,8.1-19.68c5.19-5.22,12.23-8.16,19.58-8.16s14.39,2.94,19.58,8.16l2.87,2.89,2.87-2.89c2.57-2.59,5.62-4.64,8.98-6.04Z"/><path class="cls-2" d="M327.62,13.52C346.88,3.74,368.34-.87,389.91,.13c21.57,1,42.51,7.59,60.78,19.11,18.27,11.52,33.24,27.59,43.45,46.63,10.21,19.04,15.32,40.41,14.82,62.02-.5,21.61-6.59,42.72-17.68,61.27-11.08,18.55-26.79,33.9-45.57,44.57-18.78,10.66-40.01,16.27-61.6,16.27v-8c20.21,0,40.08-5.25,57.66-15.23,17.58-9.98,32.28-24.35,42.65-41.71s16.08-37.12,16.55-57.35c.47-20.23-4.31-40.23-13.87-58.05-9.56-17.83-23.57-32.86-40.67-43.65-17.1-10.79-36.7-16.95-56.89-17.89-20.19-.94-40.28,3.38-58.3,12.53-18.02,9.15-33.37,22.83-44.54,39.69l-6.66-4.42c11.93-18.01,28.33-32.62,47.58-42.4Zm55.12,.49c19.71-.24,39.13,4.78,56.25,14.54,17.13,9.77,31.34,23.92,41.19,41.02,9.84,17.09,14.96,36.5,14.82,56.23-.14,19.73-5.54,39.07-15.62,56.01-10.09,16.95-24.51,30.9-41.78,40.42-17.27,9.52-36.75,14.26-56.46,13.73-19.7-.53-38.91-6.3-55.64-16.73-16.8-10.47-38.49-30.98-55.4-67.03-3.62-7.71-6.72-16.04-9.94-24.7-1.93-5.19-3.91-10.51-6.07-15.88-5.86-14.56-13.34-30.39-25.6-47.82l6.53-4.61c12.72,18.08,20.47,34.5,26.48,49.43,2.35,5.84,4.39,11.33,6.34,16.58,3.11,8.38,5.99,16.11,9.49,23.59,16.27,34.69,36.93,54,52.39,63.64,15.53,9.68,33.35,15.04,51.63,15.53,18.28,.49,36.37-3.91,52.39-12.74,16.02-8.83,29.4-21.78,38.76-37.51,9.36-15.73,14.37-33.67,14.5-51.98,.13-18.31-4.61-36.32-13.75-52.18-9.13-15.86-22.33-29-38.22-38.06-15.89-9.06-33.91-13.72-52.2-13.49-18.29,.23-36.19,5.33-51.85,14.78l-4.13-6.85c16.88-10.19,36.17-15.68,55.88-15.93Zm-10.43,14.66c13.05-1.54,26.27-.4,38.86,3.36,12.59,3.76,24.28,10.05,34.35,18.5,10.07,8.44,18.31,18.86,24.21,30.61,5.9,11.75,9.35,24.58,10.12,37.7,.77,13.13-1.15,26.27-5.63,38.63-4.49,12.36-11.45,23.67-20.46,33.24-9.01,9.57-19.88,17.19-31.95,22.4-11.99,5.18-25.03,8.27-38.31,7.9-21.69-.6-42.07-6.57-60.23-21.36-18.09-14.73-33.67-37.95-46.31-72.49l7.5-2.75c12.33,33.69,27.23,55.5,43.85,69.03,16.55,13.48,35.14,19.01,55.41,19.57,11.9,.33,23.78-2.43,34.92-7.24,11.06-4.78,21.03-11.77,29.3-20.54s14.65-19.15,18.77-30.48c4.11-11.33,5.87-23.39,5.17-35.43-.71-12.04-3.86-23.81-9.28-34.58-5.41-10.77-12.97-20.32-22.21-28.07-9.24-7.74-19.95-13.52-31.5-16.96-11.54-3.45-23.67-4.5-35.64-3.08l-.94-7.94Z"/><path class="cls-4" d="M181.37,236.48c-19.26,9.78-40.72,14.39-62.29,13.39-21.57-1-42.51-7.59-60.78-19.11-18.27-11.52-33.24-27.59-43.45-46.64C4.64,165.08-.47,143.71,.03,122.1c.5-21.61,6.59-42.72,17.68-61.27,11.08-18.55,26.78-33.9,45.57-44.57C82.06,5.6,103.28,0,124.88,0V8c-20.21,0-40.08,5.25-57.66,15.23-17.58,9.98-32.28,24.35-42.65,41.71-10.38,17.36-16.08,37.12-16.54,57.34-.47,20.23,4.31,40.23,13.87,58.05,9.56,17.83,23.57,32.87,40.67,43.65,17.1,10.79,36.7,16.95,56.89,17.89,20.19,.94,40.28-3.38,58.3-12.53,18.02-9.15,33.37-22.83,44.54-39.69l6.66,4.42c-11.93,18.01-28.33,32.62-47.59,42.4Zm-55.12-.49c-19.71,.24-39.13-4.78-56.25-14.54-17.13-9.76-31.34-23.92-41.19-41.02-9.84-17.09-14.96-36.51-14.82-56.23,.14-19.73,5.54-39.06,15.62-56.01,10.09-16.95,24.51-30.9,41.78-40.42,17.27-9.52,36.75-14.26,56.46-13.73,19.7,.53,38.91,6.3,55.64,16.73,16.8,10.47,38.49,30.98,55.4,67.03,3.62,7.71,6.72,16.04,9.94,24.7,1.93,5.19,3.91,10.51,6.07,15.88,5.86,14.56,13.34,30.39,25.6,47.82l-6.53,4.61c-12.72-18.08-20.47-34.5-26.48-49.43-2.35-5.84-4.39-11.33-6.34-16.58-3.11-8.38-5.99-16.11-9.49-23.59-16.27-34.69-36.93-54-52.39-63.64-15.53-9.68-33.35-15.04-51.63-15.53-18.28-.49-36.37,3.91-52.39,12.74-16.02,8.83-29.4,21.78-38.76,37.51-9.36,15.73-14.37,33.67-14.5,51.98-.13,18.31,4.61,36.32,13.75,52.18,9.13,15.86,22.33,29,38.22,38.06,15.89,9.06,33.91,13.72,52.2,13.49,18.29-.23,36.19-5.33,51.85-14.78l4.13,6.85c-16.88,10.18-36.17,15.68-55.88,15.93Zm10.43-14.66c-13.05,1.54-26.27,.4-38.86-3.36-12.59-3.76-24.28-10.05-34.35-18.5-10.07-8.44-18.31-18.86-24.21-30.61-5.9-11.75-9.35-24.58-10.12-37.7-.77-13.13,1.15-26.27,5.63-38.63,4.49-12.36,11.45-23.67,20.46-33.24,9.01-9.57,19.88-17.19,31.94-22.4,11.99-5.18,25.03-8.27,38.31-7.9,21.69,.6,42.07,6.58,60.23,21.36,18.09,14.73,33.67,37.95,46.31,72.49l-7.5,2.75c-12.33-33.69-27.23-55.5-43.85-69.03-16.55-13.48-35.14-19.01-55.41-19.57-11.9-.33-23.78,2.43-34.92,7.24-11.06,4.78-21.03,11.77-29.3,20.54-8.27,8.77-14.65,19.15-18.77,30.48-4.12,11.33-5.87,23.39-5.17,35.43,.71,12.04,3.87,23.81,9.28,34.58,5.41,10.77,12.97,20.32,22.21,28.07,9.24,7.74,19.96,13.52,31.5,16.96,11.55,3.45,23.67,4.5,35.64,3.08l.94,7.95Z"/></g></g></svg>