<?xml version="1.0" standalone="no"?>
<!DOCTYPE svg PUBLIC "-//W3C//DTD SVG 20010904//EN"
 "http://www.w3.org/TR/2001/REC-SVG-20010904/DTD/svg10.dtd">
<svg version="1.0" xmlns="http://www.w3.org/2000/svg"
 width="2122.000000pt" height="2122.000000pt" viewBox="0 0 2122.000000 2122.000000"
 preserveAspectRatio="xMidYMid meet">
<metadata>
Created by potrace 1.14, written by Peter Selinger 2001-2017
</metadata>
<g transform="translate(0.000000,2122.000000) scale(0.100000,-0.100000)"
fill="#000000" stroke="none">
<path d="M5158 15815 c-2 -2 -84 -5 -183 -9 -99 -3 -191 -8 -205 -10 -14 -3
-56 -7 -95 -10 -38 -3 -79 -8 -90 -10 -11 -2 -46 -7 -79 -11 -32 -3 -68 -8
-80 -10 -165 -28 -211 -37 -216 -40 -3 -1 -27 -6 -54 -9 -80 -11 -378 -90
-551 -146 -1131 -368 -2105 -1110 -2747 -2095 -244 -373 -459 -817 -592 -1221
-20 -61 -39 -119 -41 -130 -3 -10 -20 -75 -40 -144 -34 -122 -96 -405 -111
-505 -5 -27 -9 -52 -9 -55 -1 -3 -5 -32 -9 -65 -5 -33 -10 -69 -12 -80 -2 -11
-7 -47 -10 -80 -3 -33 -7 -70 -9 -83 -25 -157 -25 -788 0 -987 2 -16 7 -59 10
-95 16 -174 73 -490 126 -690 16 -63 32 -126 35 -140 9 -42 172 -518 194 -565
5 -11 19 -42 30 -70 118 -271 261 -541 419 -785 51 -81 189 -279 201 -290 3
-3 25 -32 50 -65 50 -67 50 -66 185 -225 86 -101 408 -429 476 -485 13 -11 69
-58 124 -104 567 -476 1246 -829 1968 -1024 281 -76 584 -134 806 -152 41 -4
84 -9 95 -11 117 -23 732 -22 936 1 19 2 64 7 100 10 36 3 72 8 80 10 8 2 40
7 70 10 46 5 125 18 305 51 17 3 59 12 95 20 36 9 72 17 80 19 202 44 589 169
772 248 18 8 74 32 123 53 221 94 551 275 775 423 149 99 358 253 430 317 14
12 61 53 105 91 89 76 92 78 201 184 104 101 246 249 314 328 30 36 60 69 65
75 66 71 345 451 345 471 0 6 -272 187 -276 183 -1 -2 -34 -48 -73 -103 -123
-176 -220 -298 -354 -447 -672 -754 -1566 -1281 -2552 -1506 -158 -36 -371
-73 -505 -87 -36 -4 -73 -9 -84 -11 -101 -19 -680 -26 -851 -11 -144 13 -261
26 -310 33 -16 3 -46 7 -65 9 -19 2 -44 7 -56 9 -12 3 -39 8 -60 11 -21 3 -70
13 -109 21 -38 8 -80 16 -91 18 -12 3 -91 23 -175 45 -625 163 -1186 435
-1704 826 -200 151 -282 221 -460 395 -119 116 -202 203 -280 294 -27 33 -55
64 -60 70 -32 32 -172 216 -242 316 -413 586 -690 1247 -818 1950 -9 46 -11
60 -25 155 -6 44 -13 91 -15 105 -2 14 -7 57 -11 95 -3 39 -8 77 -9 87 -5 23
-18 330 -18 413 0 78 13 376 17 415 2 14 7 61 11 104 4 43 8 87 10 96 2 9 6
41 10 70 4 29 8 60 10 69 1 9 6 36 10 61 4 25 9 54 11 65 3 11 12 56 20 100
53 276 160 621 284 920 42 100 202 429 242 495 11 19 39 67 61 105 299 514
776 1044 1271 1413 506 376 1090 657 1692 812 84 22 165 42 180 45 16 2 40 7
54 10 89 20 190 38 290 51 14 1 39 5 55 8 17 3 57 8 90 11 33 4 69 8 81 10 29
4 236 17 347 20 51 2 99 4 108 4 15 1 17 21 18 165 l0 164 -24 4 c-14 3 -26 4
-27 3z"/>
<path d="M15907 15814 c-1 -1 -70 -4 -152 -8 -83 -4 -162 -8 -175 -10 -14 -3
-61 -7 -104 -11 -43 -4 -86 -8 -95 -10 -9 -1 -43 -6 -76 -10 -32 -4 -68 -9
-79 -11 -11 -2 -38 -6 -61 -10 -132 -19 -362 -70 -560 -124 -770 -212 -1517
-627 -2119 -1180 -234 -215 -484 -496 -669 -750 -42 -58 -81 -110 -86 -116 -5
-6 -20 -29 -35 -52 l-26 -41 136 -91 c74 -49 138 -90 142 -90 4 0 16 13 25 30
27 45 183 255 261 350 265 325 591 634 921 871 454 327 935 564 1467 723 215
64 507 129 678 151 25 3 56 8 70 10 23 4 97 13 174 20 253 25 718 25 921 0 17
-2 57 -6 90 -9 58 -6 124 -14 155 -20 8 -2 38 -6 65 -10 183 -28 442 -88 649
-151 1415 -429 2563 -1488 3108 -2865 112 -282 207 -605 254 -860 2 -14 9 -47
14 -75 10 -54 15 -82 26 -160 3 -27 8 -58 10 -67 1 -9 6 -48 9 -85 4 -37 8
-79 10 -92 25 -156 25 -631 0 -921 -10 -112 -35 -295 -59 -422 -8 -42 -26
-133 -30 -153 -15 -71 -49 -205 -76 -295 -17 -58 -33 -112 -35 -120 -15 -59
-108 -312 -162 -440 -181 -426 -402 -797 -689 -1155 -597 -744 -1381 -1288
-2284 -1583 -175 -58 -455 -130 -600 -156 -19 -3 -46 -8 -60 -11 -14 -3 -41
-8 -60 -10 -19 -3 -48 -7 -65 -10 -16 -3 -48 -7 -70 -10 -22 -3 -53 -7 -70
-10 -16 -2 -59 -7 -95 -10 -36 -3 -83 -8 -105 -10 -22 -2 -116 -7 -210 -11
-93 -3 -172 -8 -174 -10 -3 -2 -4 -202 -2 -300 l1 -31 123 3 c121 2 295 12
352 19 17 2 57 7 90 10 59 6 97 11 165 21 19 2 51 7 70 9 33 4 324 61 363 71
9 2 26 6 36 8 479 107 1041 337 1501 616 131 80 345 225 445 302 460 354 873
794 1181 1258 61 90 87 132 161 255 7 11 15 27 20 35 4 8 20 38 36 65 32 55
163 313 195 385 87 197 142 339 197 505 72 215 132 444 169 640 42 221 69 414
81 580 3 44 8 105 10 135 5 69 5 468 0 575 -3 76 -7 120 -20 260 -7 73 -44
334 -50 355 -3 8 -7 31 -10 50 -16 119 -87 411 -142 585 -90 286 -203 567
-329 815 -103 204 -275 499 -296 508 -4 2 -8 8 -8 13 0 9 -20 40 -131 195
-223 313 -551 662 -899 958 -53 45 -279 215 -358 270 -255 174 -597 366 -852
476 -41 18 -88 38 -105 45 -177 77 -619 222 -763 250 -9 1 -35 8 -57 13 -41
11 -213 46 -275 56 -19 3 -44 8 -55 10 -11 2 -42 7 -70 10 -27 4 -63 9 -80 12
-16 4 -43 8 -60 9 -44 4 -164 16 -205 20 -83 10 -525 25 -533 19z"/>
<path d="M4948 15225 c-2 -2 -48 -6 -103 -10 -55 -3 -107 -8 -115 -10 -8 -2
-43 -7 -77 -10 -118 -12 -149 -17 -303 -46 -181 -35 -208 -41 -370 -86 -558
-153 -1082 -410 -1545 -758 -114 -86 -131 -100 -249 -200 -98 -82 -389 -373
-471 -470 -37 -44 -78 -92 -91 -107 -89 -103 -287 -386 -386 -553 -333 -557
-564 -1245 -623 -1855 -4 -36 -8 -76 -11 -90 -22 -137 -22 -724 0 -850 3 -14
7 -58 11 -99 3 -41 7 -77 9 -80 2 -3 7 -37 11 -76 4 -38 8 -72 10 -75 2 -3 6
-22 9 -44 41 -260 166 -700 261 -921 7 -16 28 -66 46 -110 49 -116 167 -355
234 -470 55 -96 185 -304 205 -328 5 -7 51 -68 101 -137 270 -366 595 -689
979 -971 500 -368 1078 -632 1692 -775 145 -33 195 -43 378 -70 25 -3 52 -8
61 -9 9 -2 52 -6 95 -10 43 -4 87 -9 97 -11 35 -6 292 -17 407 -17 122 0 400
12 410 18 3 1 41 6 84 10 43 4 87 8 96 10 9 2 41 6 70 10 29 4 62 9 74 11 12
2 35 6 51 9 17 3 53 10 80 15 28 5 61 12 75 14 117 21 482 121 565 156 11 4
49 18 85 31 121 42 324 131 475 207 164 82 302 159 310 172 5 8 -135 251 -159
277 -8 9 -27 2 -76 -28 -112 -69 -406 -211 -582 -280 -199 -79 -577 -191 -718
-212 -19 -3 -75 -13 -125 -22 -126 -23 -154 -27 -290 -41 -227 -24 -702 -23
-855 0 -14 3 -56 7 -95 11 -38 4 -72 8 -75 10 -3 1 -32 6 -65 10 -32 3 -62 8
-65 10 -3 2 -23 6 -45 9 -83 12 -278 58 -395 92 -47 14 -92 27 -100 29 -8 2
-76 25 -150 50 -597 208 -1144 551 -1590 995 -165 164 -212 216 -315 345 -44
55 -83 102 -86 105 -3 3 -47 64 -97 135 -279 397 -502 871 -628 1333 -28 104
-26 94 -54 222 -24 107 -33 159 -55 300 -4 23 -13 92 -20 150 -26 198 -26 782
-1 918 2 9 7 46 11 82 4 36 9 74 11 85 2 11 6 38 9 60 3 22 7 47 10 55 2 8 7
31 9 50 24 180 166 662 246 835 5 11 21 49 35 85 38 93 164 341 231 457 111
190 328 499 429 609 6 6 42 46 80 90 89 99 242 253 337 335 40 35 81 72 93 83
11 10 68 55 126 101 297 232 645 435 989 578 121 50 325 125 360 132 3 1 37
11 75 23 72 22 330 87 381 95 128 22 295 48 328 51 61 6 176 17 221 21 56 6
526 7 551 1 11 -2 61 -7 110 -10 50 -4 101 -8 114 -11 14 -2 47 -6 74 -9 71
-8 219 -34 301 -52 39 -9 81 -18 95 -20 14 -3 43 -10 65 -16 22 -5 48 -12 58
-14 39 -7 324 -97 362 -114 11 -5 47 -18 80 -30 232 -83 573 -257 820 -419
144 -94 399 -291 515 -397 19 -18 46 -42 60 -54 129 -111 407 -406 560 -595
36 -44 68 -82 71 -85 3 -3 50 -66 105 -140 134 -180 304 -433 384 -569 9 -14
34 -57 57 -96 272 -464 454 -864 727 -1605 48 -129 91 -244 96 -255 5 -11 35
-87 65 -170 65 -172 202 -511 270 -665 25 -58 56 -127 68 -155 31 -71 279
-567 323 -645 121 -217 169 -298 394 -655 8 -13 47 -70 85 -126 39 -56 73
-106 76 -111 7 -10 279 178 279 192 0 5 -4 11 -9 14 -26 17 -376 568 -483 764
-259 468 -467 924 -684 1495 -35 95 -69 181 -74 192 -4 11 -20 54 -35 95 -15
41 -33 91 -40 110 -13 32 -125 327 -180 475 -107 285 -321 745 -478 1026 -35
63 -75 134 -89 159 -201 361 -554 853 -851 1185 -79 89 -361 373 -447 450
-634 571 -1388 950 -2215 1116 -55 11 -115 22 -134 25 -19 2 -47 6 -63 9 -75
13 -209 30 -328 41 -69 6 -626 14 -632 9z"/>
<path d="M15748 15225 c-2 -1 -43 -6 -93 -9 -49 -4 -106 -9 -125 -11 -19 -3
-56 -7 -82 -10 -53 -6 -172 -22 -203 -29 -29 -5 -107 -19 -125 -21 -8 -1 -45
-10 -81 -18 -37 -9 -78 -18 -91 -21 -60 -11 -278 -73 -413 -118 -289 -97 -661
-267 -872 -397 l-42 -26 54 -90 c30 -50 68 -114 85 -142 17 -29 33 -53 35 -53
1 0 51 27 111 61 479 267 953 427 1524 514 14 2 52 6 85 10 33 3 80 7 105 10
133 14 185 16 400 15 129 0 246 -2 260 -4 14 -2 66 -7 115 -10 126 -10 321
-39 500 -76 453 -93 941 -287 1350 -538 859 -526 1506 -1342 1828 -2302 70
-209 141 -493 162 -650 3 -25 8 -52 10 -60 2 -8 7 -39 10 -69 4 -30 8 -61 10
-70 1 -9 6 -52 9 -96 4 -44 9 -105 12 -135 8 -81 8 -430 0 -545 -58 -883 -381
-1719 -932 -2412 -580 -729 -1408 -1259 -2315 -1482 -161 -40 -395 -84 -514
-97 -33 -3 -68 -8 -78 -10 -127 -24 -714 -23 -877 1 -14 2 -47 6 -75 10 -109
13 -136 17 -290 46 -196 38 -170 32 -290 64 -373 99 -798 279 -1120 475 -187
114 -373 248 -565 409 -148 124 -438 410 -560 552 -52 61 -102 118 -111 127
-22 24 -115 142 -197 252 -40 52 -76 101 -82 107 -34 40 -253 376 -333 510
-127 213 -160 274 -281 513 -169 337 -262 557 -463 1095 -327 876 -443 1156
-669 1610 -68 138 -130 261 -138 275 -16 26 -142 250 -160 285 -47 87 -278
452 -369 581 l-71 102 -75 -54 c-42 -30 -102 -71 -133 -92 -31 -20 -57 -42
-57 -48 -1 -6 54 -94 122 -195 68 -101 161 -247 207 -324 46 -77 90 -151 99
-165 8 -14 23 -38 32 -55 9 -16 40 -73 69 -125 220 -396 477 -970 675 -1505
113 -306 198 -533 205 -550 11 -26 51 -131 84 -220 15 -38 31 -80 36 -92 6
-13 14 -33 19 -45 6 -13 36 -84 67 -158 188 -448 435 -906 707 -1315 82 -123
196 -286 207 -295 3 -3 17 -21 30 -40 22 -32 128 -168 140 -180 3 -3 23 -27
45 -55 22 -27 52 -63 66 -80 137 -158 216 -242 349 -375 554 -553 1147 -925
1853 -1164 198 -67 543 -153 686 -172 18 -2 36 -6 40 -8 4 -3 35 -7 70 -11 34
-4 70 -8 79 -10 9 -1 46 -6 82 -10 36 -4 94 -10 130 -15 70 -8 748 -6 790 3
14 3 53 8 87 11 104 11 141 16 288 40 17 3 55 10 85 16 30 7 69 14 85 17 87
14 362 91 518 143 403 136 726 295 1087 535 390 260 699 539 1014 916 67 80
229 303 300 412 214 330 394 707 514 1077 47 144 98 323 108 379 3 12 11 51
19 85 16 72 19 85 44 236 11 63 23 144 26 180 4 36 9 73 11 83 26 140 26 735
-1 957 -2 19 -6 60 -10 90 -5 53 -8 75 -21 150 -3 19 -8 46 -9 60 -13 90 -79
379 -119 515 -1 6 -8 30 -15 55 -66 232 -231 626 -368 875 -564 1025 -1488
1798 -2588 2166 -38 13 -72 24 -75 24 -3 1 -12 4 -20 7 -17 7 -137 40 -225 63
-118 31 -364 81 -440 90 -29 4 -74 10 -140 20 -16 2 -61 7 -100 10 -38 4 -83
9 -100 11 -33 6 -621 14 -627 9z"/>
<path d="M15807 14644 c-1 -1 -49 -5 -107 -9 -58 -3 -114 -8 -125 -10 -11 -2
-30 -4 -43 -4 -13 -1 -21 -4 -19 -8 3 -5 8 -37 11 -73 4 -36 9 -76 11 -90 3
-14 7 -54 11 -90 6 -69 11 -83 23 -76 31 20 558 29 736 13 76 -7 239 -28 310
-41 11 -2 49 -9 84 -16 262 -48 607 -162 877 -291 908 -434 1604 -1232 1915
-2194 27 -82 91 -323 103 -385 32 -166 48 -276 62 -420 15 -152 8 -648 -11
-748 -1 -9 -6 -44 -10 -76 -8 -70 -40 -250 -54 -304 -6 -20 -12 -49 -15 -64
-17 -98 -108 -378 -181 -554 -293 -711 -860 -1364 -1520 -1750 -27 -16 -59
-34 -70 -41 -51 -30 -329 -165 -410 -199 -230 -96 -565 -195 -775 -229 -19 -3
-46 -8 -60 -10 -14 -2 -47 -7 -75 -10 -27 -3 -61 -8 -75 -10 -45 -7 -263 -18
-340 -18 -83 0 -321 12 -360 18 -14 2 -59 7 -100 10 -41 4 -82 9 -92 10 -9 2
-38 7 -65 11 -258 37 -669 146 -828 219 -16 7 -54 23 -83 34 -30 12 -115 52
-190 90 -473 235 -897 585 -1272 1046 -36 44 -67 82 -70 85 -21 21 -164 220
-237 330 -133 199 -217 338 -331 545 -69 126 -253 507 -317 655 -37 85 -73
169 -80 185 -19 43 -107 265 -145 368 -18 48 -33 87 -34 87 -1 0 -72 -26 -157
-57 -152 -57 -155 -59 -149 -83 8 -25 173 -448 190 -485 5 -11 50 -112 101
-225 98 -222 239 -506 325 -658 30 -52 54 -96 54 -97 0 -9 186 -310 260 -420
212 -317 409 -556 674 -820 470 -468 954 -771 1541 -967 244 -81 589 -157 835
-183 30 -3 69 -8 85 -11 173 -25 702 -25 855 0 14 3 48 7 75 11 28 3 59 8 70
10 11 3 36 7 55 9 189 27 547 130 810 235 758 302 1427 851 1871 1536 60 92
84 132 146 240 45 77 171 341 213 445 51 125 113 304 141 409 26 95 66 258 72
291 18 93 27 150 32 185 4 22 8 47 10 55 2 8 7 47 11 85 3 39 8 77 9 85 23
124 23 687 0 820 -2 14 -7 48 -10 75 -10 92 -16 130 -25 180 -5 28 -12 66 -15
85 -31 191 -149 584 -240 795 -7 17 -25 59 -41 95 -28 66 -128 263 -179 355
-76 135 -269 418 -350 512 -5 7 -14 18 -20 25 -105 138 -361 399 -540 548
-394 329 -848 580 -1335 739 -111 36 -246 75 -297 86 -85 18 -223 46 -243 50
-74 13 -233 35 -290 40 -36 3 -90 8 -120 11 -50 6 -468 12 -473 8z"/>
<path d="M4987 14604 c-1 -1 -47 -5 -102 -8 -55 -4 -111 -9 -125 -11 -14 -2
-45 -7 -70 -10 -95 -13 -117 -17 -190 -31 -41 -9 -86 -18 -100 -20 -256 -49
-676 -197 -960 -340 -140 -71 -166 -85 -275 -149 -326 -190 -694 -497 -954
-795 -31 -35 -64 -74 -74 -85 -30 -33 -180 -234 -239 -320 -277 -406 -507
-947 -602 -1420 -22 -110 -25 -124 -31 -165 -3 -20 -7 -45 -9 -55 -2 -11 -7
-45 -11 -75 -3 -30 -8 -66 -10 -80 -27 -182 -27 -750 0 -911 2 -13 6 -48 9
-78 11 -103 57 -338 100 -502 116 -443 342 -925 610 -1299 54 -76 123 -167
136 -180 3 -3 23 -27 45 -55 68 -86 114 -135 274 -295 393 -392 855 -691 1386
-895 273 -106 631 -196 910 -230 28 -4 60 -8 72 -10 164 -26 758 -27 888 -1
11 3 24 5 28 5 4 1 5 20 2 44 -9 70 -15 119 -21 182 -4 33 -8 67 -10 75 -1 8
-3 19 -3 23 -1 5 -25 6 -53 3 -210 -23 -610 -24 -748 -2 -14 2 -51 7 -84 11
-32 4 -68 8 -80 10 -11 2 -39 6 -61 10 -552 82 -1146 337 -1628 699 -73 55
-134 102 -137 105 -3 3 -39 36 -81 73 -402 357 -733 811 -934 1283 -25 61 -50
119 -55 130 -53 114 -165 503 -186 643 -3 20 -7 44 -9 52 -3 8 -7 33 -10 55
-4 22 -8 47 -10 55 -2 8 -7 42 -10 75 -4 33 -8 71 -11 85 -21 127 -22 636 0
760 3 14 7 52 11 85 3 33 8 69 10 80 3 11 7 36 10 55 42 288 159 669 293 955
449 958 1253 1656 2282 1980 134 42 399 104 513 120 27 3 57 8 66 10 134 26
688 26 830 0 9 -1 47 -6 85 -10 38 -4 79 -9 90 -10 12 -2 64 -11 116 -20 131
-22 394 -87 520 -128 300 -99 613 -250 865 -420 328 -221 659 -531 928 -872
48 -60 91 -115 95 -120 5 -6 51 -71 103 -145 285 -405 532 -862 768 -1420 46
-107 88 -208 95 -225 7 -16 35 -90 62 -162 27 -73 52 -133 56 -133 11 0 281
99 297 109 15 10 -8 77 -134 387 -74 181 -91 222 -146 342 -16 35 -29 65 -29
68 0 15 -230 470 -307 609 -171 304 -365 606 -506 785 -7 9 -34 45 -62 80 -27
36 -52 67 -55 70 -3 3 -27 32 -55 65 -463 556 -993 954 -1602 1204 -162 66
-436 155 -544 176 -8 2 -47 11 -85 20 -109 26 -140 32 -194 40 -20 3 -45 7
-55 9 -31 6 -96 15 -140 20 -120 14 -152 18 -175 21 -83 12 -573 27 -583 19z"/>
<path d="M5100 12714 c-206 -56 -352 -232 -364 -440 -8 -141 41 -271 140 -371
223 -226 598 -179 757 95 162 280 14 635 -300 716 -75 20 -160 19 -233 0z"/>
<path d="M14749 12406 c-2 -2 -35 -6 -74 -10 -179 -17 -386 -100 -545 -220
-249 -187 -404 -440 -464 -756 -15 -75 -15 -315 -1 -390 34 -188 113 -369 222
-515 59 -78 1760 -1797 1808 -1826 38 -24 92 -24 130 0 55 33 1762 1761 1819
1841 110 153 188 340 212 510 11 73 11 302 1 365 -95 590 -603 1018 -1187
1000 -321 -10 -572 -119 -812 -354 l-98 -95 -97 95 c-205 200 -385 293 -668
344 -38 7 -240 16 -246 11z"/>
<path d="M4635 11776 c-132 -71 -191 -113 -259 -181 -109 -109 -186 -240 -233
-392 -25 -82 -26 -101 -27 -283 -1 -159 2 -237 14 -328 0 -2 14 -2 32 0 29 3
32 0 42 -41 40 -159 276 -127 276 38 0 41 1 43 26 37 25 -7 25 -7 19 46 -3 29
-8 132 -10 228 -5 171 -5 176 20 229 40 85 111 177 171 223 53 40 83 46 52 11
-32 -36 -119 -240 -132 -309 -2 -10 -9 -37 -14 -59 -6 -22 -14 -59 -17 -82 -3
-23 -8 -57 -11 -75 -7 -51 -6 -317 2 -329 4 -7 6 -134 4 -283 -6 -628 -4 -989
4 -1121 4 -77 9 -160 11 -185 9 -166 18 -248 30 -275 61 -148 326 -186 465
-68 41 36 64 87 62 140 -1 23 3 33 13 33 16 0 16 25 0 240 -14 196 -18 315
-19 495 l-1 200 61 1 c34 0 68 4 77 7 18 7 18 5 20 -328 1 -89 -7 -325 -18
-520 -5 -105 9 -191 40 -235 56 -81 203 -124 322 -95 13 3 25 5 28 5 3 0 24
11 47 24 58 32 108 98 108 141 0 18 6 35 13 37 6 3 12 16 13 29 0 13 5 112 9
219 5 107 9 303 9 435 0 218 -3 346 -20 840 -3 88 -7 261 -9 385 -2 124 -6
236 -9 250 -2 14 -7 41 -11 60 -29 163 -121 393 -187 464 -54 59 59 -4 126
-70 54 -53 130 -184 140 -240 12 -66 8 -229 -10 -421 l-5 -51 30 4 c28 5 29 3
25 -26 -7 -42 27 -111 66 -134 40 -23 108 -24 147 -1 34 20 62 61 69 103 7 35
8 36 34 22 12 -6 23 -10 25 -8 8 8 26 284 27 403 1 163 -15 232 -81 366 -105
211 -225 336 -425 442 -42 22 -50 24 -63 11 -8 -8 -24 -14 -36 -15 -12 0 -29
-2 -37 -3 -8 -2 -41 -7 -74 -10 -32 -4 -68 -9 -80 -11 -11 -2 -42 -6 -68 -9
-27 -3 -69 -9 -95 -13 -94 -15 -265 -8 -378 13 -11 2 -40 6 -65 9 -25 3 -56 8
-70 10 -14 3 -41 7 -60 10 -19 3 -40 12 -46 20 -16 21 -19 20 -109 -29z"/>
</g>
</svg>
